<svg width="16" height="11" viewBox="0 0 16 11" fill="none" xmlns="http://www.w3.org/2000/svg">
<path d="M0.0068469 5.35091L0 5.24914C0 4.86944 0.282154 4.55565 0.64823 4.50599L0.75 4.49914L13.446 4.5L10.2248 1.28055C9.95846 1.0144 9.93408 0.597744 10.1518 0.304041L10.2244 0.219893C10.4905 -0.0464849 10.9072 -0.0708656 11.2009 0.146866L11.2851 0.219448L15.7851 4.71569C16.0514 4.98184 16.0758 5.3985 15.8581 5.6922L15.7855 5.77635L11.2855 10.2801C10.9927 10.5731 10.5179 10.5733 10.2248 10.2806C9.95846 10.0144 9.93408 9.59774 10.1518 9.30404L10.2244 9.21989L13.442 6L0.75 5.99914C0.370304 5.99914 0.0565093 5.71699 0.0068469 5.35091L0 5.24914L0.0068469 5.35091Z" fill="#131313"/>
</svg>
