<svg width="28" height="28" viewBox="0 0 28 28" fill="none" xmlns="http://www.w3.org/2000/svg">
<path d="M14.3623 15.8765H26.4951V21.8765C26.4951 22.498 26.0029 23 25.3936 23H23.9248C23.3154 23 22.8232 22.498 22.8232 21.8765V21.1275H18.042V21.8765C18.042 22.498 17.5498 23 16.9404 23H15.4717C14.8623 23 14.3701 22.498 14.3701 21.8765V15.8765H14.3623ZM21.7217 17.749H19.1514C18.7451 17.749 18.417 18.0837 18.417 18.498C18.417 18.9124 18.7451 19.247 19.1514 19.247H21.7217C22.1279 19.247 22.4561 18.9124 22.4561 18.498C22.4561 18.0837 22.1279 17.749 21.7217 17.749ZM16.9404 17.749H16.5732C16.167 17.749 15.8389 18.0837 15.8389 18.498C15.8389 18.9124 16.167 19.247 16.5732 19.247H16.9404C17.3467 19.247 17.6748 18.9124 17.6748 18.498C17.6748 18.0837 17.3467 17.749 16.9404 17.749ZM24.292 17.749H23.9248C23.5186 17.749 23.1904 18.0837 23.1904 18.498C23.1904 18.9124 23.5186 19.247 23.9248 19.247H24.292C24.6982 19.247 25.0264 18.9124 25.0264 18.498C25.0264 18.0837 24.6982 17.749 24.292 17.749ZM14.6123 14.3785L16.2607 10.3386C16.3779 10.0598 16.6436 9.87649 16.9404 9.87649H23.9248C24.2217 9.87649 24.4873 10.0598 24.6045 10.3386L26.2529 14.3785H14.6045H14.6123ZM7.74512 21.8765C7.74512 22.498 7.25293 23 6.64355 23H4.80762C4.19824 23 3.70605 22.498 3.70605 21.8765V15.8765H12.9014V21.1275H7.75293V21.8765H7.74512ZM11.0576 17.749H9.22168C8.81543 17.749 8.4873 18.0837 8.4873 18.498C8.4873 18.9124 8.81543 19.247 9.22168 19.247H11.0576C11.4639 19.247 11.792 18.9124 11.792 18.498C11.792 18.0837 11.4639 17.749 11.0576 17.749ZM6.64355 17.749H6.27637C5.87012 17.749 5.54199 18.0837 5.54199 18.498C5.54199 18.9124 5.87012 19.247 6.27637 19.247H6.64355C7.0498 19.247 7.37793 18.9124 7.37793 18.498C7.37793 18.0837 7.0498 17.749 6.64355 17.749ZM15.4717 8.95219C15.2295 9.1753 15.0342 9.44622 14.9092 9.76494L13.0264 14.3785H3.69824V10.251C3.29199 10.251 2.96387 10.5857 2.96387 11V13.247C2.96387 13.6614 2.63574 13.996 2.22949 13.996C1.82324 13.996 1.49512 13.6614 1.49512 13.247V11C1.49512 9.75697 2.47949 8.75299 3.69824 8.75299H15.4639V8.95219H15.4717ZM5.1748 5H14.0029C14.8154 5 15.4717 5.66932 15.4717 6.49801V7.24701H3.69824V6.49801C3.69824 5.66932 4.35449 5 5.16699 5H5.1748Z" fill="#3AB1C5"/>
</svg>
