<svg width="148" height="21" viewBox="0 0 148 21" fill="none" xmlns="http://www.w3.org/2000/svg">
<path d="M56.8434 2.94531V8.65476H50.531V2.94531H47.0537V17.9313H50.531V11.9058H56.8434V17.9313H60.3207V2.94531H60.1434H56.8434Z" fill="white"/>
<path d="M73.0704 2.94531L69.431 8.87971L65.7974 2.94531H61.6934L67.6977 12.7414V17.9313H71.1697V12.7414L77.174 2.94531H76.8557H73.0704Z" fill="white"/>
<path d="M88.3632 2.94531V13.925C88.3646 14.0248 88.3462 14.1239 88.3092 14.2162C88.2726 14.3086 88.2179 14.3923 88.1486 14.4624C88.0792 14.5324 87.9969 14.5874 87.9062 14.6239C87.8156 14.6604 87.7189 14.6778 87.6216 14.6749H82.0506V2.94531H78.5732V17.942H88.8486C89.2486 17.975 89.6506 17.9186 90.0272 17.7767C90.4039 17.6348 90.7459 17.4107 91.0299 17.1199C91.3139 16.8292 91.5329 16.4787 91.6719 16.0926C91.8109 15.7065 91.8666 15.294 91.8352 14.8837V2.94531H88.3632Z" fill="white"/>
<path d="M105.337 2.94595H95.0566V17.9426H98.534V6.19167H104.116C104.212 6.19023 104.308 6.20862 104.398 6.24573C104.487 6.28284 104.569 6.33792 104.637 6.40776C104.706 6.47763 104.76 6.56078 104.797 6.65246C104.834 6.74411 104.852 6.84236 104.852 6.9415V17.9319H108.324V6.01492C108.344 5.60585 108.283 5.19686 108.146 4.81224C108.009 4.42761 107.798 4.07524 107.525 3.77614C107.234 3.49377 106.89 3.27467 106.514 3.13202C106.138 2.98936 105.738 2.92607 105.337 2.94595Z" fill="white"/>
<path d="M121.826 2.9462H111.546V17.9429H121.826C122.225 17.9721 122.625 17.9124 123 17.7681C123.374 17.6237 123.713 17.398 123.994 17.1065C124.276 16.815 124.492 16.4645 124.629 16.0792C124.766 15.6938 124.82 15.2827 124.787 14.8739V6.01518C124.814 5.60272 124.758 5.18897 124.624 4.79935C124.489 4.40973 124.278 4.05249 124.004 3.74959C123.712 3.4726 123.369 3.25869 122.995 3.12066C122.621 2.98263 122.223 2.9233 121.826 2.9462ZM121.336 6.96316V13.9259C121.337 14.0248 121.319 14.123 121.284 14.2149C121.248 14.3068 121.195 14.3905 121.127 14.4612C121.06 14.5319 120.979 14.5882 120.89 14.6268C120.802 14.6655 120.706 14.6858 120.61 14.6865H115.018V6.19193H120.573C120.674 6.18662 120.775 6.20288 120.869 6.23965C120.963 6.27638 121.048 6.33283 121.12 6.40538C121.192 6.47792 121.248 6.56498 121.285 6.661C121.322 6.75703 121.339 6.85994 121.336 6.96316Z" fill="white"/>
<path d="M130.87 2.94623C130.47 2.92553 130.07 2.98845 129.695 3.13117C129.32 3.27389 128.977 3.49341 128.687 3.77639C128.412 4.07403 128.199 4.42602 128.061 4.81092C127.922 5.19581 127.862 5.60556 127.883 6.01521V17.9322H131.35V13.2993H137.668V17.9322H141.14V2.94623H130.87ZM137.657 6.19193V10.0536H131.34V6.96319C131.338 6.86107 131.357 6.75967 131.394 6.66508C131.432 6.57049 131.488 6.48466 131.558 6.41267C131.629 6.34071 131.713 6.28405 131.806 6.24612C131.898 6.20819 131.997 6.18977 132.097 6.19193H137.657Z" fill="white"/>
<path d="M148.006 2.94531H144.528V17.9313H148.006V2.94531Z" fill="white"/>
<path d="M19.8771 20.8882C30.8416 20.8882 39.749 16.2125 39.749 10.4441C39.749 4.67575 30.852 0 19.8771 0C8.90213 0 0 4.67575 0 10.4388C0 16.2018 8.87603 20.8882 19.8771 20.8882ZM23.6155 15.7626C23.2865 16.5445 22.7174 18.2103 21.4069 18.9012C20.9908 19.0985 20.5391 19.2043 20.0807 19.2118C19.9867 19.2118 19.9136 19.2118 19.8823 19.2118C16.5261 19.238 13.1842 18.7616 9.96204 17.7979L9.84717 17.755C9.5861 17.6639 9.45037 17.5408 9.45037 17.3854C9.45373 17.3217 9.4698 17.2593 9.49767 17.2022C9.5255 17.145 9.5645 17.0944 9.61224 17.0534L9.79497 16.8927C10.4424 16.325 12.4212 14.8467 16.1857 13.3899C17.7103 12.7544 19.2815 12.244 20.8848 11.8635C21.8507 11.6331 25.5839 11.044 23.6155 15.7572V15.7626ZM33.661 5.23277C33.6903 5.1653 33.7367 5.10723 33.7957 5.06475C33.8543 5.0223 33.9233 4.99707 33.9953 4.99176C34.144 4.98896 34.2897 5.03805 34.4077 5.13099C36.7417 6.60389 38.1253 8.441 38.1253 10.4334C38.1253 14.038 33.614 17.1283 27.1607 18.4674C26.7482 18.553 26.4715 18.5477 26.3775 18.4674C26.2835 18.387 26.2939 18.2853 26.3775 18.146C26.4265 18.058 26.4843 17.9755 26.5498 17.8996C30.0636 13.6523 32.7369 7.38586 33.4993 5.5809C33.5567 5.43629 33.614 5.31312 33.661 5.23277ZM16.1857 5.09888C16.5146 4.31156 17.0838 2.62977 18.3943 1.96028C18.8101 1.76216 19.262 1.65631 19.7205 1.64963C19.8197 1.64963 19.8928 1.64963 19.9189 1.64963C23.275 1.62455 26.6168 2.10087 29.8391 3.06361L29.9436 3.10646C30.2098 3.19751 30.3456 3.32069 30.3456 3.47601C30.3428 3.53913 30.3269 3.60093 30.299 3.65728C30.2711 3.71363 30.2318 3.7632 30.1837 3.80274L30.001 3.96878C29.3797 4.53648 27.3904 6.00937 23.6468 7.49832C22.1224 8.1357 20.5511 8.64791 18.9477 9.03014C17.9609 9.22832 14.2173 9.81211 16.1857 5.09888ZM12.5883 2.38876C13.006 2.30842 13.2775 2.30842 13.3767 2.38876C13.4091 2.43576 13.4264 2.49189 13.4264 2.54944C13.4264 2.60698 13.4091 2.66311 13.3767 2.71012C13.3233 2.79642 13.2639 2.87875 13.1992 2.95649C9.68533 7.23054 7.01207 13.5024 6.26543 15.3127C6.208 15.4359 6.15057 15.559 6.10357 15.6394C6.07517 15.7079 6.02897 15.7671 5.97007 15.8105C5.91117 15.8539 5.84177 15.88 5.76943 15.8858C5.62097 15.8858 5.4764 15.837 5.35693 15.7465C3.02307 14.2736 1.63946 12.4312 1.63946 10.4388C1.62379 6.83956 6.1349 3.74916 12.5883 2.38876Z" fill="white"/>
</svg>
