<svg width="1438" height="8287" viewBox="0 0 1438 8287" fill="none" xmlns="http://www.w3.org/2000/svg">
<g opacity="0.5" clip-path="url(#clip0_3472_30022)">
<path d="M0 445L543 14" stroke="white" stroke-opacity="0.05"/>
<path d="M0 578L711 13" stroke="white" stroke-opacity="0.05"/>
<path d="M0 715L884 12" stroke="white" stroke-opacity="0.05"/>
<path d="M0 872L1064 11" stroke="white" stroke-opacity="0.05"/>
<path d="M0 1030L1265 9" stroke="white" stroke-opacity="0.05"/>
<path d="M0 1185L1437 26" stroke="white" stroke-opacity="0.05"/>
<path d="M0 1345L1435 189" stroke="white" stroke-opacity="0.05"/>
<path d="M0 1503L1437 347" stroke="white" stroke-opacity="0.05"/>
<path d="M0 1641L1436 486" stroke="white" stroke-opacity="0.05"/>
<path d="M0 1778L1438 628" stroke="white" stroke-opacity="0.05"/>
<path d="M0 1900L1554 657" stroke="white" stroke-opacity="0.05"/>
<path d="M0 2031L1568 777" stroke="white" stroke-opacity="0.05"/>
<path d="M0 2162L1582 897" stroke="white" stroke-opacity="0.05"/>
<path d="M0 2294L1596 1017" stroke="white" stroke-opacity="0.05"/>
<path d="M0 2428L1579 1165" stroke="white" stroke-opacity="0.05"/>
<path d="M0 2541L1624 1257" stroke="white" stroke-opacity="0.05"/>
<path d="M0 2679L1638 1377" stroke="white" stroke-opacity="0.05"/>
<path d="M0 2813L1638 1511" stroke="white" stroke-opacity="0.05"/>
<path d="M0 2947L1638 1645" stroke="white" stroke-opacity="0.05"/>
<path d="M0 3081L1638 1779" stroke="white" stroke-opacity="0.05"/>
<path d="M0 3221L1638 1919" stroke="white" stroke-opacity="0.05"/>
<path d="M0 3361L1638 2059" stroke="white" stroke-opacity="0.05"/>
<path d="M0 3501L1638 2199" stroke="white" stroke-opacity="0.05"/>
<path d="M0 3641L1638 2339" stroke="white" stroke-opacity="0.05"/>
<path d="M0 3781L1638 2479" stroke="white" stroke-opacity="0.05"/>
<path d="M0 3921L1638 2619" stroke="white" stroke-opacity="0.05"/>
<path d="M0 4061L1638 2759" stroke="white" stroke-opacity="0.05"/>
<path d="M0 4201L1638 2899" stroke="white" stroke-opacity="0.05"/>
<path d="M0 4341L1638 3039" stroke="white" stroke-opacity="0.05"/>
<path d="M0 4481L1638 3179" stroke="white" stroke-opacity="0.05"/>
<path d="M0 4621L1638 3319" stroke="white" stroke-opacity="0.05"/>
<path d="M0 4761L1638 3459" stroke="white" stroke-opacity="0.05"/>
<path d="M0 4901L1638 3599" stroke="white" stroke-opacity="0.05"/>
<path d="M0 5041L1638 3739" stroke="white" stroke-opacity="0.05"/>
<path d="M0 5181L1638 3879" stroke="white" stroke-opacity="0.05"/>
<path d="M0 5321L1638 4019" stroke="white" stroke-opacity="0.05"/>
<path d="M0 5461L1638 4159" stroke="white" stroke-opacity="0.05"/>
<path d="M0 5601L1638 4299" stroke="white" stroke-opacity="0.05"/>
<path d="M0 5741L1638 4439" stroke="white" stroke-opacity="0.05"/>
<path d="M0 5881L1638 4579" stroke="white" stroke-opacity="0.05"/>
<path d="M0 6021L1638 4719" stroke="white" stroke-opacity="0.05"/>
<path d="M0 6161L1638 4859" stroke="white" stroke-opacity="0.05"/>
<path d="M0 6301L1638 4999" stroke="white" stroke-opacity="0.05"/>
<path d="M0 6441L1638 5139" stroke="white" stroke-opacity="0.05"/>
<path d="M0 6581L1638 5279" stroke="white" stroke-opacity="0.05"/>
<path d="M0 6721L1638 5419" stroke="white" stroke-opacity="0.05"/>
<path d="M0 6861L1638 5559" stroke="white" stroke-opacity="0.05"/>
<path d="M0 7001L1638 5699" stroke="white" stroke-opacity="0.05"/>
<path d="M0 7141L1638 5839" stroke="white" stroke-opacity="0.05"/>
<path d="M0 7281L1638 5979" stroke="white" stroke-opacity="0.05"/>
<path d="M0 7421L1638 6119" stroke="white" stroke-opacity="0.05"/>
<path d="M0 7561L1638 6259" stroke="white" stroke-opacity="0.05"/>
<path d="M0 7701L1638 6399" stroke="white" stroke-opacity="0.05"/>
<path d="M0 7841L1638 6539" stroke="white" stroke-opacity="0.05"/>
<path d="M0 7981L1638 6679" stroke="white" stroke-opacity="0.05"/>
<path d="M0 8121L1638 6819" stroke="white" stroke-opacity="0.05"/>
<path d="M0 8261L1638 6959" stroke="white" stroke-opacity="0.05"/>
<path d="M0 8401L1638 7099" stroke="white" stroke-opacity="0.05"/>
<path d="M0 8541L1638 7239" stroke="white" stroke-opacity="0.05"/>
<path d="M0 8681L1638 7379" stroke="white" stroke-opacity="0.05"/>
<path d="M0 8821L1638 7519" stroke="white" stroke-opacity="0.05"/>
<path d="M0 8961L1638 7659" stroke="white" stroke-opacity="0.05"/>
<path d="M0 9101L1638 7799" stroke="white" stroke-opacity="0.05"/>
<path d="M0 9241L1638 7939" stroke="white" stroke-opacity="0.05"/>
<path d="M0 9381L1638 8079" stroke="white" stroke-opacity="0.05"/>
<path d="M0 9521L1638 8219" stroke="white" stroke-opacity="0.05"/>
<path d="M0 326L392 16" stroke="white" stroke-opacity="0.05"/>
<path d="M0 213L236 26" stroke="white" stroke-opacity="0.05"/>
<path d="M1065.5 11.5L1440 347" stroke="white" stroke-opacity="0.05"/>
<path d="M877 12L1438 514" stroke="white" stroke-opacity="0.05"/>
<path d="M711 13L1440 665" stroke="white" stroke-opacity="0.05"/>
<path d="M545 14L1438 813" stroke="white" stroke-opacity="0.05"/>
<path d="M368 5L1435 960" stroke="white" stroke-opacity="0.05"/>
<path d="M191 0L1436 1114" stroke="white" stroke-opacity="0.05"/>
<path d="M45 0L1435 1244" stroke="white" stroke-opacity="0.05"/>
<path d="M0 137L1435 1421" stroke="white" stroke-opacity="0.05"/>
<path d="M0 326L1435 1583" stroke="white" stroke-opacity="0.05"/>
<path d="M0 512L1435 1768" stroke="white" stroke-opacity="0.05"/>
<path d="M0 718L1435 1974" stroke="white" stroke-opacity="0.05"/>
<path d="M0 924L1435 2180" stroke="white" stroke-opacity="0.05"/>
<path d="M0 1130L1435 2386" stroke="white" stroke-opacity="0.05"/>
<path d="M0 1336L1435 2592" stroke="white" stroke-opacity="0.05"/>
<path d="M0 1542L1435 2798" stroke="white" stroke-opacity="0.05"/>
<path d="M0 1748L1435 3004" stroke="white" stroke-opacity="0.05"/>
<path d="M0 1954L1435 3210" stroke="white" stroke-opacity="0.05"/>
<path d="M0 2160L1435 3416" stroke="white" stroke-opacity="0.05"/>
<path d="M0 2366L1435 3622" stroke="white" stroke-opacity="0.05"/>
<path d="M0 2572L1435 3828" stroke="white" stroke-opacity="0.05"/>
<path d="M0 2778L1435 4034" stroke="white" stroke-opacity="0.05"/>
<path d="M0 2984L1435 4240" stroke="white" stroke-opacity="0.05"/>
<path d="M0 3190L1435 4446" stroke="white" stroke-opacity="0.05"/>
<path d="M0 3396L1435 4652" stroke="white" stroke-opacity="0.05"/>
<path d="M0 3602L1435 4858" stroke="white" stroke-opacity="0.05"/>
<path d="M0 3808L1435 5064" stroke="white" stroke-opacity="0.05"/>
<path d="M0 4014L1435 5270" stroke="white" stroke-opacity="0.05"/>
<path d="M0 4220L1435 5476" stroke="white" stroke-opacity="0.05"/>
<path d="M0 4426L1435 5682" stroke="white" stroke-opacity="0.05"/>
<path d="M0 4632L1435 5888" stroke="white" stroke-opacity="0.05"/>
<path d="M0 4838L1435 6094" stroke="white" stroke-opacity="0.05"/>
<path d="M0 5044L1435 6300" stroke="white" stroke-opacity="0.05"/>
<path d="M0 5250L1435 6506" stroke="white" stroke-opacity="0.05"/>
<path d="M0 5456L1435 6712" stroke="white" stroke-opacity="0.05"/>
<path d="M0 5662L1435 6918" stroke="white" stroke-opacity="0.05"/>
<path d="M0 5868L1435 7124" stroke="white" stroke-opacity="0.05"/>
<path d="M0 6074L1435 7330" stroke="white" stroke-opacity="0.05"/>
<path d="M0 6280L1435 7536" stroke="white" stroke-opacity="0.05"/>
<path d="M0 6486L1435 7742" stroke="white" stroke-opacity="0.05"/>
<path d="M0 6692L1435 7948" stroke="white" stroke-opacity="0.05"/>
<path d="M0 6898L1435 8154" stroke="white" stroke-opacity="0.05"/>
<path d="M0 7104L1435 8360" stroke="white" stroke-opacity="0.05"/>
<path d="M0 7310L1435 8566" stroke="white" stroke-opacity="0.05"/>
<path d="M0 7516L1435 8772" stroke="white" stroke-opacity="0.05"/>
<path d="M0 7722L1435 8978" stroke="white" stroke-opacity="0.05"/>
<path d="M0 7928L1435 9184" stroke="white" stroke-opacity="0.05"/>
<path d="M0 8134L1435 9390" stroke="white" stroke-opacity="0.05"/>
<path d="M1242 12L1438 187" stroke="white" stroke-opacity="0.05"/>
</g>
<defs>
<clipPath id="clip0_3472_30022">
<rect width="1438" height="8368" fill="white"/>
</clipPath>
</defs>
</svg>
