<svg width="28" height="28" viewBox="0 0 28 28" fill="none" xmlns="http://www.w3.org/2000/svg">
<path d="M7.01139 3.95807H3.59147V14.2096C3.59147 14.3001 3.66546 14.3658 3.74767 14.3658H6.8552C6.93741 14.3658 7.01139 14.2918 7.01139 14.2096V3.95807ZM7.73484 7.92059V14.2179C7.73484 14.3083 7.80883 14.3741 7.89104 14.3741H12.6428C12.725 14.3741 12.799 14.3001 12.799 14.2179V6.61345C12.799 6.50658 12.7003 6.43259 12.6017 6.45725L7.84994 7.76439C7.78417 7.78083 7.73484 7.8466 7.73484 7.92059ZM13.5306 7.92059V14.2179C13.5306 14.3083 13.6046 14.3741 13.6868 14.3741H18.4386C18.5208 14.3741 18.5948 14.3001 18.5948 14.2179V6.61345C18.5948 6.50658 18.4961 6.43259 18.3975 6.45725L13.6457 7.76439C13.58 7.78083 13.5306 7.8466 13.5306 7.92059ZM19.3264 7.92059V14.2179C19.3264 14.3083 19.4004 14.3741 19.4826 14.3741H24.2343C24.3166 14.3741 24.3905 14.3001 24.3905 14.2179V6.61345C24.3905 6.50658 24.2919 6.43259 24.1932 6.45725L19.4415 7.76439C19.3757 7.78083 19.3264 7.8466 19.3264 7.92059ZM15.2324 9.14551H16.9012C16.9917 9.14551 17.0574 9.2195 17.0574 9.30171V10.9952C17.0574 11.0857 16.9834 11.1514 16.9012 11.1514H15.2324C15.1419 11.1514 15.0762 11.0774 15.0762 10.9952V9.30171C15.0762 9.21128 15.1502 9.14551 15.2324 9.14551ZM21.0282 9.14551H22.697C22.7875 9.14551 22.8532 9.2195 22.8532 9.30171V10.9952C22.8532 11.0857 22.7792 11.1514 22.697 11.1514H21.0282C20.9377 11.1514 20.872 11.0774 20.872 10.9952V9.30171C20.872 9.21128 20.946 9.14551 21.0282 9.14551ZM9.43658 9.14551H11.1054C11.1959 9.14551 11.2616 9.2195 11.2616 9.30171V10.9952C11.2616 11.0857 11.1877 11.1514 11.1054 11.1514H9.43658C9.34615 11.1514 9.28039 11.0774 9.28039 10.9952V9.30171C9.28039 9.21128 9.35437 9.14551 9.43658 9.14551ZM11.87 18.6572C12.018 19.7177 12.9141 20.5316 13.991 20.5316C15.068 20.5316 15.9723 19.7177 16.112 18.6572C16.1367 18.501 16.0134 18.353 15.8572 18.353H12.1248C11.9686 18.353 11.8453 18.4928 11.87 18.6572ZM1.88972 15.1139H26.1005C26.3143 15.1139 26.4951 15.2948 26.4951 15.5086V16.4375C26.4951 16.6595 26.3225 16.8321 26.1005 16.8321H1.88972C1.67598 16.8321 1.49512 16.6513 1.49512 16.4375V15.5086C1.49512 15.2866 1.66776 15.1139 1.88972 15.1139ZM3.59147 3.21818H7.01139V1.6562C7.01139 1.56577 6.93741 1.5 6.8552 1.5H3.74767C3.66546 1.5 3.59147 1.57399 3.59147 1.6562V3.21818ZM21.4803 19.7095C19.9019 19.7095 19.1127 21.6496 20.2225 22.7841C20.428 22.9896 20.428 23.3349 20.2225 23.5404L19.088 24.6914C18.8825 24.8969 18.5454 24.8969 18.3399 24.6914C17.2219 23.5569 15.3146 24.3625 15.3146 25.9656C15.3146 26.2616 15.0762 26.5 14.7884 26.5H13.1854C12.8976 26.5 12.6592 26.2616 12.6592 25.9656C12.6592 24.3625 10.7437 23.5569 9.63389 24.6914C9.42836 24.8969 9.0913 24.8969 8.88578 24.6914L7.75128 23.5404C7.54576 23.3349 7.54576 22.9896 7.75128 22.7841C8.86934 21.6496 8.0719 19.7095 6.49347 19.7095C6.20574 19.7095 5.96733 19.4711 5.96733 19.1751V18.6243C5.96733 18.4763 6.08242 18.3612 6.2304 18.3612H9.81475C9.95451 18.3612 10.0696 18.4681 10.0778 18.6079C10.2011 20.6878 11.9029 22.332 13.991 22.332C16.0791 22.332 17.7727 20.6878 17.9042 18.6079C17.9124 18.4681 18.0275 18.3612 18.1673 18.3612H21.7516C21.8914 18.3612 22.0147 18.4763 22.0147 18.6243V19.1751C22.0147 19.4711 21.7763 19.7095 21.4885 19.7095H21.4803Z" fill="#3AB1C5"/>
</svg>
