<svg width="24" height="24" viewBox="0 0 24 24" fill="none" xmlns="http://www.w3.org/2000/svg">
<rect x="0.6" y="0.6" width="22.8" height="22.8" rx="11.4" stroke="#131313" stroke-width="1.2"/>
<path d="M16.1917 16.7771L12.7013 13.2866C12.4234 13.516 12.1039 13.6955 11.7426 13.8252C11.3814 13.9549 11.0077 14.0197 10.6216 14.0197C9.67175 14.0197 8.86788 13.6909 8.20999 13.0332C7.55209 12.3755 7.22314 11.5718 7.22314 10.6221C7.22314 9.67259 7.552 8.86864 8.20971 8.21029C8.86742 7.55203 9.6711 7.2229 10.6208 7.2229C11.5703 7.2229 12.3743 7.55184 13.0326 8.20973C13.6909 8.86762 14.02 9.67148 14.02 10.6213C14.02 11.0182 13.9534 11.3972 13.8202 11.7585C13.687 12.1197 13.5092 12.4339 13.2869 12.701L16.7773 16.1914L16.1917 16.7771ZM10.6216 13.1863C11.3376 13.1863 11.9441 12.9378 12.4411 12.4408C12.9381 11.9438 13.1866 11.3374 13.1866 10.6213C13.1866 9.90525 12.9381 9.29877 12.4411 8.80186C11.9441 8.30485 11.3376 8.05635 10.6216 8.05635C9.90552 8.05635 9.29903 8.30485 8.80212 8.80186C8.30511 9.29877 8.0566 9.90525 8.0566 10.6213C8.0566 11.3374 8.30511 11.9438 8.80212 12.4408C9.29903 12.9378 9.90552 13.1863 10.6216 13.1863Z" fill="#131313" stroke="#131313" stroke-width="0.3"/>
</svg>
