<svg width="20" height="20" viewBox="0 0 20 20" fill="none" xmlns="http://www.w3.org/2000/svg">
<path fill-rule="evenodd" clip-rule="evenodd" d="M6.03857 5.83333C6.03857 8.01667 7.81357 9.79167 9.99691 9.79167C12.1802 9.79167 13.9552 8.01667 13.9552 5.83333C13.9552 3.65 12.1802 1.875 9.99691 1.875C7.81357 1.875 6.03857 3.65 6.03857 5.83333ZM7.28857 5.83333C7.28857 4.34167 8.50524 3.125 9.99691 3.125C11.4886 3.125 12.7052 4.34167 12.7052 5.83333C12.7052 7.325 11.4886 8.54167 9.99691 8.54167C8.50524 8.54167 7.28857 7.325 7.28857 5.83333ZM3.53857 15.8333C3.53857 17.1 4.56357 18.125 5.83024 18.125H14.1636C15.4302 18.125 16.4552 17.1 16.4552 15.8333C16.4552 13.1917 14.3052 11.0417 11.6636 11.0417H8.33024C5.68857 11.0417 3.53857 13.1917 3.53857 15.8333ZM4.78857 15.8333C4.79077 14.8947 5.16462 13.9951 5.82834 13.3314C6.49205 12.6677 7.39161 12.2939 8.33024 12.2917H11.6636C12.6022 12.2939 13.5018 12.6677 14.1655 13.3314C14.8292 13.9951 15.203 14.8947 15.2052 15.8333C15.2052 16.4083 14.7386 16.875 14.1636 16.875H5.83024C5.25524 16.875 4.78857 16.4083 4.78857 15.8333Z" fill="#131313"/>
</svg>
